<svg width="20" height="18" viewBox="0 0 20 18" fill="none" xmlns="http://www.w3.org/2000/svg">
	<path fill-rule="evenodd" clip-rule="evenodd" d="M8.48637 1.11419C9.16078 -0.0480754 10.8392 -0.0480722 11.5136 1.11419L13.579 4.67355C13.7694 5.00164 14.0984 5.22553 14.4735 5.28218L17.9031 5.80018C19.3981 6.02598 19.9225 7.91355 18.7582 8.87815L16.2593 10.9485C15.9086 11.239 15.7437 11.6974 15.8289 12.1449L16.5289 15.8208C16.8031 17.2608 15.2914 18.3796 13.9944 17.6966L10.5824 15.9001C10.2178 15.7081 9.78215 15.7081 9.41762 15.9001L6.00559 17.6966C4.70858 18.3796 3.19695 17.2608 3.47115 15.8208L4.17113 12.1449C4.25633 11.6974 4.09141 11.239 3.74067 10.9485L1.24177 8.87815C0.0774827 7.91355 0.601886 6.02598 2.09688 5.80018L5.52653 5.28218C5.90159 5.22553 6.23064 5.00164 6.42101 4.67355L8.48637 1.11419ZM10.2162 1.86702C10.1199 1.70098 9.88011 1.70098 9.78377 1.86702L7.71841 5.42638C7.29959 6.14817 6.57568 6.64073 5.75054 6.76535L2.3209 7.28336C2.10733 7.31562 2.03241 7.58527 2.19874 7.72307L4.69764 9.79338C5.46927 10.4327 5.8321 11.4411 5.64465 12.4254L4.94467 16.1014C4.9055 16.3071 5.12144 16.467 5.30673 16.3694L8.71877 14.5728C9.52073 14.1505 10.4793 14.1505 11.2812 14.5728L14.6933 16.3694C14.8786 16.467 15.0945 16.3071 15.0553 16.1014L14.3554 12.4254C14.1679 11.4411 14.5307 10.4327 15.3024 9.79339L17.8013 7.72307C17.9676 7.58527 17.8927 7.31562 17.6791 7.28336L14.2495 6.76535C13.4243 6.64073 12.7004 6.14817 12.2816 5.42638L10.2162 1.86702Z" fill="black" />
</svg>
